# xmcd CD database file
#
# Track frame offsets:
#	150
#	11997
#	27394
#	38416
#	50963
#	61915
#	73809
#	86446
#	97738
#	110631
#	124885
#	138035
#
# Disc length: 1998 seconds
#
# Revision: 0
# Processed by: cddbd v1.5.2PL0 Copyright (c) Steve Scherf et al.
# Submitted via: CDex 1.51
#
DISCID=a107cc0c
DTITLE=Various Artist - Late Night Country
DYEAR=2003
DGENRE=Country
TTITLE0=Patsy Cline - Walking After Midnight
TTITLE1=Don Gibson - Sweet Dreams
TTITLE2=Roy Acuff - Night Train To Memphis
TTITLE3=Stoney Cooper and Wilma Lee - Big Midnight Special
TTITLE4=Lorrie Morgan - Tell Me I'm Only Dreaming
TTITLE5=The Kendalls - Heaven's Just a Sin Away
TTITLE6=George Morgan - In The Misty Moonlight
TTITLE7=Bill Anderson - I Get The Fever
TTITLE8=Lee Greenwood - Touch and Go Crazy
TTITLE9=Holly Dunn - Love Someone Like Me
TTITLE10=Merle Haggard - Swinging Doors
TTITLE11=Conway Twitty - I'm Not Through Loving You Yet
EXTD=YEAR: 2003
EXTT0=
EXTT1=
EXTT2=
EXTT3=
EXTT4=
EXTT5=
EXTT6=
EXTT7=
EXTT8=
EXTT9=
EXTT10=
EXTT11=
PLAYORDER=
